HIERARCHY
ROOT Hips
{
	OFFSET	0.00	0.00	0.00
	CHANNELS 6 Xposition Yposition Zposition Zrotation Xrotation Yrotation
	JOINT LeftUpLeg
	{
		OFFSET	 0.126116	-0.014019	-0.065224
		CHANNELS 3 Zrotation Xrotation Yrotation
		JOINT LeftLeg
		{
			OFFSET	 0.000000	 0.000000	 0.569914
			CHANNELS 3 Zrotation Xrotation Yrotation
			JOINT LeftFoot
			{
				OFFSET	 0.000000	 0.000000	 0.544423
				CHANNELS 3 Zrotation Xrotation Yrotation
				JOINT LeftToeBase
				{
					OFFSET	 0.000000	 0.000000	 0.207117
					CHANNELS 3 Zrotation Xrotation Yrotation
					End Site
					{
						OFFSET	 0.000000	 0.000000	 0.207117
					}
				}
			}
		}
	}
	JOINT RightUpLeg
	{
		OFFSET	-0.124023	-0.008373	-0.065224
		CHANNELS 3 Zrotation Xrotation Yrotation
		JOINT RightLeg
		{
			OFFSET	 0.000000	 0.000000	 0.570047
			CHANNELS 3 Zrotation Xrotation Yrotation
			JOINT RightFoot
			{
				OFFSET	 0.000000	 0.000000	 0.544354
				CHANNELS 3 Zrotation Xrotation Yrotation
				JOINT RightToeBase
				{
					OFFSET	 0.000000	 0.000000	 0.207540
					CHANNELS 3 Zrotation Xrotation Yrotation
					End Site
					{
						OFFSET	 0.000000	 0.000000	 0.207540
					}
				}
			}
		}
	}
	JOINT Spine
	{
		OFFSET	 0.000184	-0.007763	 0.117403
		CHANNELS 3 Zrotation Xrotation Yrotation
		JOINT Spine1
		{
			OFFSET	 0.000000	 0.000000	 0.137269
			CHANNELS 3 Zrotation Xrotation Yrotation
			JOINT Spine2
			{
				OFFSET	 0.000000	 0.000000	 0.156879
				CHANNELS 3 Zrotation Xrotation Yrotation
				JOINT LeftShoulder
				{
					OFFSET	 0.080501	-0.002496	 0.160144
					CHANNELS 3 Zrotation Xrotation Yrotation
					JOINT LeftArm
					{
						OFFSET	 0.000000	 0.000000	 0.164363
						CHANNELS 3 Zrotation Xrotation Yrotation
						JOINT LeftForeArm
						{
							OFFSET	 0.000000	 0.000000	 0.364576
							CHANNELS 3 Zrotation Xrotation Yrotation
							JOINT LeftHand
							{
								OFFSET	 0.000000	 0.000000	 0.360812
								CHANNELS 3 Zrotation Xrotation Yrotation
								JOINT LeftHandIndex1
								{
									OFFSET	 0.000000	 0.000000	 0.086006
									CHANNELS 3 Zrotation Xrotation Yrotation
									JOINT LeftHandIndex2
									{
										OFFSET	 0.000000	 0.000000	 0.047237
										CHANNELS 3 Zrotation Xrotation Yrotation
										JOINT LeftHandIndex3
										{
											OFFSET	-0.004284	-0.000551	 0.038165
											CHANNELS 3 Zrotation Xrotation Yrotation
											End Site
											{
												OFFSET	-0.004284	-0.000551	 0.038165
											}
										}
									}
								}
							}
						}
					}
				}
				JOINT Neck
				{
					OFFSET	 0.000000	 0.000000	 0.176489
					CHANNELS 3 Zrotation Xrotation Yrotation
					JOINT Head
					{
						OFFSET	 0.000000	-0.001747	 0.077940
						CHANNELS 3 Zrotation Xrotation Yrotation
						End Site
						{
							OFFSET	 0.000000	-0.001747	 0.077940
						}
					}
				}
				JOINT RightShoulder
				{
					OFFSET	-0.080363	 0.000306	 0.159706
					CHANNELS 3 Zrotation Xrotation Yrotation
					JOINT RightArm
					{
						OFFSET	 0.000000	 0.000000	 0.164196
						CHANNELS 3 Zrotation Xrotation Yrotation
						JOINT RightForeArm
						{
							OFFSET	 0.000000	 0.000000	 0.365611
							CHANNELS 3 Zrotation Xrotation Yrotation
							JOINT RightHand
							{
								OFFSET	 0.000000	 0.000000	 0.360648
								CHANNELS 3 Zrotation Xrotation Yrotation
								JOINT RightHandIndex1
								{
									OFFSET	 0.000000	 0.000000	 0.069977
									CHANNELS 3 Zrotation Xrotation Yrotation
									JOINT RightHandIndex2
									{
										OFFSET	 0.000000	 0.000000	 0.052305
										CHANNELS 3 Zrotation Xrotation Yrotation
										JOINT RightHandIndex3
										{
											OFFSET	 0.009002	-0.000782	 0.042196
											CHANNELS 3 Zrotation Xrotation Yrotation
											End Site
											{
												OFFSET	 0.009002	-0.000782	 0.042196
											}
										}
									}
								}
							}
						}
					}
				}
			}
		}
	}
}
MOTION
Frames:    6
Frame Time: 0.03333334
-0.641040	-0.138217	 1.251250	-159.368500	 1.897682	 7.256701	 14.227860	-9.071714	 164.498400	-9.043795	-29.584570	-3.514795	-71.967700	 77.766050	 70.134420	-2.385833	 28.452760	 0.000004	 0.665298	-43.980360	 178.187300	-29.373230	-56.538520	-15.573150	 22.324690	 30.333180	-34.621620	 2.384659	 28.388700	-0.000001	 75.060550	-8.504913	-16.641600	 46.410790	 23.065860	-5.757813	-16.950690	-4.996984	 7.753994	-91.776250	 78.527430	-179.999900	 10.787960	 8.403144	-47.166260	-36.501850	 16.567960	-25.845090	-38.523810	-1.079063	-7.047410	-4.131196	 21.524690	 0.986298	-5.167839	 0.733520	 3.519257	-1.378229	 35.397820	-2.634230	-14.169650	 16.463120	-7.329120	-28.579090	 2.710446	 5.688418	 89.782110	 78.291910	 179.995800	 3.554801	 61.507750	 1.532953	 26.196270	 16.531980	 25.946530	 173.573300	-33.598960	 25.701010	 5.715225	 19.176060	-3.692089	 5.027514	 0.245388	-9.378011	-2.350882	 35.473990	 5.254307
-0.639837	-0.136410	 1.252316	-159.959200	 2.328606	 8.143013	 15.107810	-9.865843	 163.555300	-8.641570	-29.652810	-3.320935	-79.555400	 79.649080	 76.852760	-2.385833	 28.452760	 0.000004	 2.675815	-44.104040	 177.827200	-22.849530	-56.894860	-10.052760	 39.842940	 44.263780	-42.401000	 2.384659	 28.388700	-0.000001	 74.763980	-11.938740	-18.150580	 46.770580	 26.558540	-7.435556	-16.828060	-5.601214	 7.804954	-91.776180	 78.527420	-180.000000	 10.045230	 8.797514	-47.183920	-35.720970	 16.551200	-25.840410	-37.551160	-0.401833	-6.814607	-4.131196	 21.524690	 0.986298	-5.167839	 0.733520	 3.519257	-1.378229	 35.397820	-2.634230	-14.007020	 16.261560	-7.778546	-28.697410	 2.467650	 5.376974	 89.782140	 78.306610	 179.993700	 3.189142	 61.617810	 2.355083	 24.962520	 16.510130	 25.942630	 171.444500	-32.484010	 24.074090	 5.715225	 19.176060	-3.692089	 5.027514	 0.245388	-9.378011	-2.350882	 35.473990	 5.254307
-0.636434	-0.133756	 1.252727	-161.744300	 3.131727	 8.685736	 18.052540	-11.108910	 163.026700	-7.328318	-29.496020	-2.652959	-97.233540	 80.679320	 92.939250	-2.385833	 28.452760	 0.000004	 0.464453	-44.836160	 176.365900	-18.275140	-56.319980	-6.147351	 45.631620	 50.641910	-43.677890	 2.384659	 28.388700	-0.000001	 76.259000	-12.687500	-18.964860	 46.506530	 27.067220	-5.401451	-16.901420	-5.161570	 7.095585	-91.776130	 78.527380	 180.000000	 10.098070	 8.416745	-47.250970	-34.598500	 16.512510	-25.824660	-36.791190	 0.131923	-6.722546	-4.131196	 21.524690	 0.986298	-5.167839	 0.733520	 3.519257	-1.378229	 35.397820	-2.634230	-13.984280	 16.664850	-7.719536	-28.604880	 2.140643	 5.076637	 89.782100	 78.318010	 179.992700	 1.317985	 62.081410	 4.157824	 22.939120	 16.461800	 25.927620	 168.588300	-32.159310	 25.259780	 5.715225	 19.176060	-3.692089	 5.027514	 0.245388	-9.378011	-2.350882	 35.473990	 5.254307
-0.630527	-0.128315	 1.252842	-162.105700	 3.786971	 6.475323	 19.486790	-10.072950	 165.221500	-5.102875	-27.750830	-1.468253	-156.257000	 80.329540	 148.980400	-2.385833	 28.452760	 0.000004	 6.155379	-44.780200	-178.770900	-17.569260	-56.066930	-5.540963	 57.894020	 53.180900	-53.946370	 2.384659	 28.388700	-0.000001	 76.905700	-12.933100	-16.035420	 46.530850	 29.273110	-7.172057	-16.361060	-7.379859	 6.945090	-91.776100	 78.527420	 179.999900	 10.004390	 8.752750	-47.182240	-33.824190	 16.452040	-25.794860	-36.151280	 0.647202	-6.611823	-4.131196	 21.524690	 0.986298	-5.167839	 0.733520	 3.519257	-1.378229	 35.397820	-2.634230	-13.578390	 17.150310	-8.068607	-28.460350	 2.251637	 6.609900	 89.782140	 78.327830	 179.992900	-2.263009	 62.154070	 7.345177	 21.610740	 16.394530	 25.893810	 165.610900	-30.515050	 25.509700	 5.715225	 19.176060	-3.692089	 5.027514	 0.245388	-9.378011	-2.350882	 35.473990	 5.254307
-0.623091	-0.122950	 1.252075	-162.215500	 2.501745	 4.857079	 18.601420	-6.558662	 166.155300	-3.324063	-25.642770	-0.593815	-161.996500	 79.231790	 153.052800	-2.385833	 28.452760	 0.000004	 9.494590	-42.210880	-175.815800	-16.892480	-55.373100	-4.936574	 60.656750	 55.039570	-55.160890	 2.384659	 28.388700	-0.000001	 77.780820	-8.481453	-13.826520	 45.918970	 26.065910	-7.636626	-15.743490	-7.856012	 8.482423	-91.776140	 78.527400	 180.000000	 11.596830	 7.360213	-47.354600	-33.347710	 16.375580	-25.752460	-35.677860	 1.072556	-6.508734	-4.131196	 21.524690	 0.986298	-5.167839	 0.733520	 3.519257	-1.378229	 35.397820	-2.634230	-12.992630	 17.061890	-8.904544	-28.474770	 2.651744	 8.709991	 89.782160	 78.322140	 179.995100	-7.015948	 62.165550	 11.244890	 21.754780	 16.322700	 25.850320	 165.928600	-30.534880	 32.882750	 5.715225	 19.176060	-3.692089	 5.027514	 0.245388	-9.378011	-2.350882	 35.473990	 5.254307
-0.612864	-0.114163	 1.251811	-161.984900	 2.537449	 6.486034	 23.772470	-7.787186	 163.169100	-8.032201	-24.653180	-2.544049	-94.520100	 86.813960	 89.614400	-2.385833	 28.452760	 0.000004	 10.530710	-40.496480	-177.122700	-16.866010	-53.676900	-4.812573	 66.286000	 55.944280	-59.556560	 2.384659	 28.388700	-0.000001	 77.044430	-9.826479	-15.475770	 46.222970	 26.294050	-8.216375	-15.634290	-7.376048	 8.754096	-91.776190	 78.527380	 180.000000	 12.211570	 6.880002	-47.804760	-33.161370	 16.267820	-25.688010	-35.597190	 1.363637	-6.433741	-4.131196	 21.524690	 0.986298	-5.167839	 0.733520	 3.519257	-1.378229	 35.397820	-2.634230	-12.684450	 17.332980	-9.328082	-28.497480	 2.151511	 9.350243	 89.782100	 78.322090	 179.995000	-9.837803	 61.755980	 14.193820	 24.997770	 16.243950	 25.782700	 170.718300	-30.250740	 43.413160	 5.715225	 19.176060	-3.692089	 5.027514	 0.245388	-9.378011	-2.350882	 35.473990	 5.254307
